<svg id="svg" xmlns="http://www.w3.org/2000/svg" xmlns:xlink="http://www.w3.org/1999/xlink" width="400" height="325.2704031465093" viewBox="0, 0, 400,325.2704031465093"><g id="svgg"><path id="path0" d="M151.426 12.995 C 52.504 21.512,-11.281 118.719,20.907 211.902 C 46.010 284.572,122.834 326.563,197.837 308.609 C 199.654 308.174,200.377 308.180,202.360 308.647 C 307.288 333.382,403.398 243.310,385.229 137.266 C 370.732 52.656,288.009 -2.634,204.356 16.374 L 200.059 17.351 195.703 16.357 C 182.239 13.286,164.073 11.907,151.426 12.995 M205.419 19.895 C 279.032 41.904,323.839 116.610,308.718 192.122 C 297.905 246.122,257.637 290.223,205.117 305.585 C 199.325 307.279,200.534 307.370,191.777 304.584 C 154.179 292.625,121.963 265.101,104.307 229.855 C 62.463 146.326,106.200 45.852,195.870 19.510 C 200.154 18.251,199.885 18.240,205.419 19.895 M266.077 86.296 C 264.503 87.048,257.752 93.602,232.253 119.134 C 214.731 136.678,200.223 151.032,200.012 151.032 C 199.802 151.032,192.810 144.243,184.475 135.944 C 170.181 121.711,169.212 120.829,167.399 120.389 C 161.516 118.961,156.170 124.365,157.706 130.187 C 158.279 132.358,193.951 168.586,196.853 169.945 C 199.046 170.971,201.232 170.889,203.634 169.692 C 206.145 168.441,275.463 98.832,276.588 96.432 C 279.536 90.141,272.411 83.270,266.077 86.296 " stroke="none" fill="#000000" fill-rule="evenodd"></path></g></svg>