<svg version="1.1" viewBox="0.0 0.0 227.33333333333334 234.66666666666666" fill="none" stroke="none" stroke-linecap="square" stroke-miterlimit="10" xmlns:xlink="http://www.w3.org/1999/xlink" xmlns="http://www.w3.org/2000/svg"><clipPath id="p.0"><path d="m0 0l227.33333 0l0 234.66667l-227.33333 0l0 -234.66667z" clip-rule="nonzero"/></clipPath><g clip-path="url(#p.0)"><path fill="#000000" fill-opacity="0.0" d="m0 0l227.33333 0l0 234.66667l-227.33333 0z" fill-rule="evenodd"/><path fill="#000000" fill-opacity="0.0" d="m180.0832 52.063004l-66.42519 69.76378" fill-rule="evenodd"/><path stroke="#000000" stroke-width="24.0" stroke-linejoin="round" stroke-linecap="butt" d="m180.0832 52.063004l-66.42519 69.76378" fill-rule="evenodd"/><path fill="#000000" fill-opacity="0.0" d="m113.66301 121.83354l-40.598427 -32.472443" fill-rule="evenodd"/><path stroke="#000000" stroke-width="24.0" stroke-linejoin="round" stroke-linecap="butt" d="m113.66301 121.83354l-40.598427 -32.472443" fill-rule="evenodd"/><path fill="#000000" fill-opacity="0.0" d="m180.0832 52.063004l0 0c35.15123 33.459656 39.923813 87.84331 11.137695 126.91397c-28.786118 39.070663 -82.14159 50.62726 -124.51448 26.96939c-42.372902 -23.657867 -60.530956 -75.14227 -42.37507 -120.14806c18.155893 -45.00579 66.95598 -69.47846 113.883705 -57.11135l-24.548393 93.15032z" fill-rule="evenodd"/><path fill="#000000" fill-opacity="0.0" d="m180.0832 52.063004l0 0c35.15123 33.459656 39.923813 87.84331 11.137695 126.91397c-28.786118 39.070663 -82.14159 50.62726 -124.51448 26.96939c-42.372902 -23.657867 -60.530956 -75.14227 -42.37507 -120.14806c18.155893 -45.00579 66.95598 -69.47846 113.883705 -57.11135" fill-rule="evenodd"/><path stroke="#000000" stroke-width="24.0" stroke-linejoin="round" stroke-linecap="butt" d="m180.0832 52.063004l0 0c35.15123 33.459656 39.923813 87.84331 11.137695 126.91397c-28.786118 39.070663 -82.14159 50.62726 -124.51448 26.96939c-42.372902 -23.657867 -60.530956 -75.14227 -42.37507 -120.14806c18.155893 -45.00579 66.95598 -69.47846 113.883705 -57.11135" fill-rule="evenodd"/><path fill="#000000" d="m125.509605 28.499264l0 0c0 -6.6274166 5.3725815 -12.0 12.000008 -12.0l0 0c3.1825867 0 6.234848 1.2642822 8.485275 3.514719c2.2504425 2.2504368 3.5147247 5.302683 3.5147247 8.485281l0 0c0 6.6274185 -5.372589 12.0 -12.0 12.0l0 0c-6.627426 0 -12.000008 -5.3725815 -12.000008 -12.0z" fill-rule="evenodd"/><path fill="#000000" d="m168.6456 51.301624l0 0c0 -6.366497 5.1610565 -11.527561 11.527557 -11.527561l0 0c3.0572968 0 5.98938 1.214508 8.151215 3.3763466c2.1618347 2.1618347 3.3763428 5.093914 3.3763428 8.151215l0 0c0 6.366493 -5.1610565 11.527557 -11.527557 11.527557l0 0c-6.366501 0 -11.527557 -5.161064 -11.527557 -11.527557z" fill-rule="evenodd"/><path fill="#000000" d="m101.666664 121.83727l0 0c0 -6.6274185 5.372589 -12.0 12.0 -12.0l0 0c3.182602 0 6.234848 1.2642822 8.485283 3.514717c2.2504349 2.2504349 3.514717 5.302681 3.514717 8.485283l0 0c0 6.6274185 -5.3725815 11.999992 -12.0 11.999992l0 0c-6.627411 0 -12.0 -5.372574 -12.0 -11.999992z" fill-rule="evenodd"/><path fill="#000000" d="m60.957832 89.30238l0 0c0 -6.6274185 5.3725815 -12.0 12.0 -12.0l0 0c3.1825943 0 6.234848 1.2642822 8.485283 3.514717c2.2504349 2.2504425 3.514717 5.3026886 3.514717 8.485283l0 0c0 6.6274185 -5.3725815 12.0 -12.0 12.0l0 0c-6.6274185 0 -12.0 -5.3725815 -12.0 -12.0z" fill-rule="evenodd"/></g></svg>